<mxfile host="app.diagrams.net" modified="2021-02-02T08:11:39.488Z" agent="5.0 (Windows)" etag="F2e4KiEaFCha55J4ScK0" version="14.2.9" type="github">
  <diagram id="jl-lqksZDpXuRrx-7xOV" name="Page-1">
    <mxGraphModel dx="1182" dy="1868" grid="1" gridSize="10" guides="1" tooltips="1" connect="1" arrows="1" fold="1" page="1" pageScale="1" pageWidth="827" pageHeight="1169" math="0" shadow="0">
      <root>
        <mxCell id="0" />
        <mxCell id="1" parent="0" />
        <mxCell id="zze9QXOIiFmM_SsQ-WCL-1" value="&lt;div&gt;Zmiana pracy&lt;/div&gt;" style="rounded=0;whiteSpace=wrap;html=1;" parent="1" vertex="1">
          <mxGeometry x="700" y="300" width="120" height="60" as="geometry" />
        </mxCell>
        <mxCell id="zze9QXOIiFmM_SsQ-WCL-2" value="&lt;div&gt;Zwiększenie szczęścia swojego i/&lt;/div&gt;&lt;div&gt;lub innych&lt;/div&gt;" style="rounded=0;whiteSpace=wrap;html=1;" parent="1" vertex="1">
          <mxGeometry x="10" y="300" width="120" height="60" as="geometry" />
        </mxCell>
        <mxCell id="zze9QXOIiFmM_SsQ-WCL-3" value="" style="endArrow=classic;html=1;entryX=0;entryY=0.5;entryDx=0;entryDy=0;" parent="1" source="zze9QXOIiFmM_SsQ-WCL-2" edge="1" target="zze9QXOIiFmM_SsQ-WCL-6">
          <mxGeometry width="50" height="50" relative="1" as="geometry">
            <mxPoint x="390" y="380" as="sourcePoint" />
            <mxPoint x="230" y="270" as="targetPoint" />
          </mxGeometry>
        </mxCell>
        <mxCell id="zze9QXOIiFmM_SsQ-WCL-4" value="&lt;div&gt;Szybsza spłata kredytów&lt;/div&gt;" style="rounded=0;whiteSpace=wrap;html=1;" parent="1" vertex="1">
          <mxGeometry x="520" y="130" width="120" height="60" as="geometry" />
        </mxCell>
        <mxCell id="zze9QXOIiFmM_SsQ-WCL-5" value="Rozwój zawodowy" style="rounded=0;whiteSpace=wrap;html=1;" parent="1" vertex="1">
          <mxGeometry x="530" y="440" width="120" height="60" as="geometry" />
        </mxCell>
        <mxCell id="zze9QXOIiFmM_SsQ-WCL-6" value="Nie martwię się, że zostawię rodzinę z długami" style="rounded=0;whiteSpace=wrap;html=1;" parent="1" vertex="1">
          <mxGeometry x="294" y="30" width="120" height="60" as="geometry" />
        </mxCell>
        <mxCell id="zze9QXOIiFmM_SsQ-WCL-7" value="&lt;div&gt;Możliwość przeznaczenia środków na inne cele (np. urlopy, charytatywne)&lt;/div&gt;&lt;div&gt;&lt;br&gt;&lt;/div&gt;" style="rounded=0;whiteSpace=wrap;html=1;" parent="1" vertex="1">
          <mxGeometry x="294" y="120" width="136" height="100" as="geometry" />
        </mxCell>
        <mxCell id="zze9QXOIiFmM_SsQ-WCL-9" value="" style="endArrow=none;dashed=1;html=1;" parent="1" edge="1">
          <mxGeometry width="50" height="50" relative="1" as="geometry">
            <mxPoint x="480" y="630" as="sourcePoint" />
            <mxPoint x="480" y="-160" as="targetPoint" />
          </mxGeometry>
        </mxCell>
        <mxCell id="zze9QXOIiFmM_SsQ-WCL-10" value="" style="endArrow=none;dashed=1;html=1;" parent="1" edge="1">
          <mxGeometry width="50" height="50" relative="1" as="geometry">
            <mxPoint x="680" y="640" as="sourcePoint" />
            <mxPoint x="680" y="-160" as="targetPoint" />
          </mxGeometry>
        </mxCell>
        <mxCell id="zze9QXOIiFmM_SsQ-WCL-11" value="" style="endArrow=none;dashed=1;html=1;" parent="1" edge="1">
          <mxGeometry width="50" height="50" relative="1" as="geometry">
            <mxPoint x="260" y="640" as="sourcePoint" />
            <mxPoint x="260" y="-150" as="targetPoint" />
          </mxGeometry>
        </mxCell>
        <mxCell id="pUGiUn1GgULjH6ZH7vq9-1" value="&lt;div&gt;Opcja/decyzja do podjęcia&lt;/div&gt;&lt;div&gt;&lt;br&gt;&lt;/div&gt;" style="text;html=1;strokeColor=none;fillColor=none;align=center;verticalAlign=middle;whiteSpace=wrap;rounded=0;" vertex="1" parent="1">
          <mxGeometry x="690" y="-90" width="120" height="70" as="geometry" />
        </mxCell>
        <mxCell id="pUGiUn1GgULjH6ZH7vq9-2" value="&lt;div&gt;Główne cele decyzji&lt;/div&gt;&lt;div&gt;&lt;br&gt;&lt;/div&gt;" style="text;html=1;strokeColor=none;fillColor=none;align=center;verticalAlign=middle;whiteSpace=wrap;rounded=0;" vertex="1" parent="1">
          <mxGeometry x="520" y="-90" width="120" height="70" as="geometry" />
        </mxCell>
        <mxCell id="pUGiUn1GgULjH6ZH7vq9-3" value="&lt;div&gt;Ścieżka realizacji celu życia przez cele decyzji&lt;/div&gt;" style="text;html=1;strokeColor=none;fillColor=none;align=center;verticalAlign=middle;whiteSpace=wrap;rounded=0;" vertex="1" parent="1">
          <mxGeometry x="300" y="-90" width="120" height="70" as="geometry" />
        </mxCell>
        <mxCell id="pUGiUn1GgULjH6ZH7vq9-4" value="Cel życia" style="text;html=1;strokeColor=none;fillColor=none;align=center;verticalAlign=middle;whiteSpace=wrap;rounded=0;" vertex="1" parent="1">
          <mxGeometry x="60" y="-90" width="120" height="70" as="geometry" />
        </mxCell>
        <mxCell id="pUGiUn1GgULjH6ZH7vq9-5" value="" style="endArrow=classic;html=1;exitX=1.025;exitY=0.367;exitDx=0;exitDy=0;exitPerimeter=0;entryX=-0.042;entryY=0.65;entryDx=0;entryDy=0;entryPerimeter=0;" edge="1" parent="1" source="zze9QXOIiFmM_SsQ-WCL-2" target="zze9QXOIiFmM_SsQ-WCL-7">
          <mxGeometry width="50" height="50" relative="1" as="geometry">
            <mxPoint x="390" y="270" as="sourcePoint" />
            <mxPoint x="440" y="220" as="targetPoint" />
          </mxGeometry>
        </mxCell>
        <mxCell id="pUGiUn1GgULjH6ZH7vq9-6" value="" style="endArrow=classic;html=1;exitX=0.992;exitY=0.633;exitDx=0;exitDy=0;exitPerimeter=0;" edge="1" parent="1" source="zze9QXOIiFmM_SsQ-WCL-7" target="zze9QXOIiFmM_SsQ-WCL-4">
          <mxGeometry width="50" height="50" relative="1" as="geometry">
            <mxPoint x="390" y="270" as="sourcePoint" />
            <mxPoint x="440" y="220" as="targetPoint" />
          </mxGeometry>
        </mxCell>
        <mxCell id="pUGiUn1GgULjH6ZH7vq9-7" value="" style="endArrow=classic;html=1;exitX=1;exitY=0.5;exitDx=0;exitDy=0;entryX=0.5;entryY=0;entryDx=0;entryDy=0;" edge="1" parent="1" source="zze9QXOIiFmM_SsQ-WCL-6" target="zze9QXOIiFmM_SsQ-WCL-4">
          <mxGeometry width="50" height="50" relative="1" as="geometry">
            <mxPoint x="490" y="130" as="sourcePoint" />
            <mxPoint x="540" y="80" as="targetPoint" />
          </mxGeometry>
        </mxCell>
        <mxCell id="pUGiUn1GgULjH6ZH7vq9-8" value="" style="endArrow=classic;html=1;exitX=0.992;exitY=0.367;exitDx=0;exitDy=0;exitPerimeter=0;entryX=0.5;entryY=0;entryDx=0;entryDy=0;" edge="1" parent="1" source="zze9QXOIiFmM_SsQ-WCL-4" target="zze9QXOIiFmM_SsQ-WCL-1">
          <mxGeometry width="50" height="50" relative="1" as="geometry">
            <mxPoint x="390" y="270" as="sourcePoint" />
            <mxPoint x="440" y="220" as="targetPoint" />
          </mxGeometry>
        </mxCell>
        <mxCell id="pUGiUn1GgULjH6ZH7vq9-11" value="&lt;div&gt;Pozostaję konkurencyjny zawodowo&lt;/div&gt;" style="rounded=0;whiteSpace=wrap;html=1;" vertex="1" parent="1">
          <mxGeometry x="294" y="380" width="120" height="60" as="geometry" />
        </mxCell>
        <mxCell id="pUGiUn1GgULjH6ZH7vq9-12" value="&lt;div&gt;Nie martwię się, że zostaję w tyle&lt;/div&gt;" style="rounded=0;whiteSpace=wrap;html=1;" vertex="1" parent="1">
          <mxGeometry x="294" y="470" width="120" height="60" as="geometry" />
        </mxCell>
        <mxCell id="pUGiUn1GgULjH6ZH7vq9-13" value="Nie martwię się o utratę pracy" style="rounded=0;whiteSpace=wrap;html=1;" vertex="1" parent="1">
          <mxGeometry x="294" y="550" width="120" height="60" as="geometry" />
        </mxCell>
      </root>
    </mxGraphModel>
  </diagram>
</mxfile>
